<?xml version="1.0" standalone="no"?>
<!DOCTYPE svg PUBLIC "-//W3C//DTD SVG 20010904//EN"
 "http://www.w3.org/TR/2001/REC-SVG-20010904/DTD/svg10.dtd">
<svg version="1.0" xmlns="http://www.w3.org/2000/svg"
 width="512.000000pt" height="512.000000pt" viewBox="0 0 512.000000 512.000000"
 preserveAspectRatio="xMidYMid meet">
<metadata>
Created by potrace 1.11, written by Peter Selinger 2001-2013
</metadata>
<g transform="translate(0.000000,512.000000) scale(0.100000,-0.100000)"
fill="#000000" stroke="none">
<path d="M1761 5104 c-119 -32 -258 -145 -313 -255 -60 -120 -60 -117 -55
-832 3 -429 8 -672 16 -709 18 -92 70 -237 113 -318 57 -106 124 -194 223
-288 l85 -82 -129 0 c-100 0 -143 -4 -193 -20 -174 -53 -317 -213 -350 -387
-11 -61 -12 -62 -31 -45 -48 43 -52 63 -57 329 l-5 253 -31 31 c-58 57 -147
47 -188 -21 -14 -24 -16 -64 -16 -273 0 -215 2 -253 20 -308 52 -169 190 -287
365 -312 62 -9 81 -9 108 3 26 12 111 15 455 18 l422 2 0 -200 0 -200 34 -38
34 -37 126 -4 126 -3 -2 -216 -3 -216 -693 -222 c-381 -122 -702 -230 -712
-239 -37 -33 -41 -66 -38 -258 l3 -187 32 -32 c27 -27 39 -32 82 -32 44 -1 55
3 83 32 l33 32 3 133 3 134 665 212 665 213 664 -213 665 -213 0 -115 c0 -137
14 -176 73 -205 49 -24 94 -15 133 25 l29 30 3 186 c3 193 -1 225 -39 259 -10
9 -330 116 -711 238 l-693 222 -3 217 -2 217 78 0 c66 0 85 4 113 23 51 34 58
68 58 275 l1 182 380 0 c332 0 385 -2 412 -16 63 -33 223 3 310 69 61 47 122
126 149 194 22 55 24 73 27 323 3 231 1 269 -13 296 -38 72 -130 84 -189 25
l-31 -31 -5 -253 c-5 -234 -7 -255 -27 -293 -12 -22 -29 -46 -37 -53 -14 -12
-16 -9 -16 20 -1 95 -57 236 -126 317 -44 52 -121 100 -186 118 -29 7 -116 17
-194 20 l-141 7 81 81 c164 164 269 369 311 606 21 118 22 1365 1 1450 -37
154 -163 294 -302 336 -71 21 -1573 20 -1653 -2z m1616 -251 c39 -19 79 -77
93 -135 8 -29 10 -253 8 -708 -4 -658 -4 -666 -27 -740 -91 -302 -303 -513
-608 -607 -81 -25 -101 -27 -268 -27 -193 -1 -235 6 -375 61 -282 112 -477
335 -547 628 -14 60 -17 157 -20 683 -3 415 -1 630 6 663 19 87 87 166 167
194 25 8 237 10 786 8 666 -3 757 -6 785 -20z m215 -2483 c66 -19 115 -90 133
-192 l6 -38 -1171 0 -1172 0 7 33 c20 90 94 170 185 198 39 12 1968 11 2012
-1z m-832 -595 l0 -115 -38 0 c-22 0 -94 -3 -160 -7 l-122 -6 0 121 0 122 160
0 160 0 0 -115z"/>
<path d="M2510 4361 c-80 -26 -149 -81 -181 -144 -89 -172 11 -389 198 -427
215 -45 395 143 348 361 -26 122 -136 209 -270 215 -38 2 -81 0 -95 -5z m108
-253 c21 -21 14 -57 -14 -70 -23 -11 -29 -10 -45 10 -35 44 20 99 59 60z"/>
</g>
</svg>
